Input #0, mov,mp4,m4a,3gp,3g2,mj2, from '/home/hbattu/projects/huberman-gpt/huberman-audio/mp3/tmpy7187e6o.mp4':
  Metadata:
    major_brand     : dash
    minor_version   : 0
    compatible_brands: iso6mp41
    creation_time   : 2022-08-04T16:15:52.000000Z
  Duration: 01:38:17.78, start: 0.000000, bitrate: 129 kb/s
    Stream #0:0(eng): Audio: aac (LC) (mp4a / 0x6134706D), 44100 Hz, stereo, fltp, 0 kb/s (default)
    Metadata:
      creation_time   : 2022-08-04T16:15:52.000000Z
      handler_name    : ISO Media file produced by Google Inc.
Stream mapping:
  Stream #0:0 -> #0:0 (aac (native) -> mp3 (libmp3lame))
Press [q] to stop, [?] for help
[graph_0_in_0_0 @ 0x5616e65e8240] tb:1/44100 samplefmt:fltp samplerate:44100 chlayout:0x3
Output #0, mp3, to '../huberman-audio/mp3/7YGZZcXqKxE.mp3':
  Metadata:
    major_brand     : dash
    minor_version   : 0
    compatible_brands: iso6mp41
    TSSE            : Lavf58.29.100
    Stream #0:0(eng): Audio: mp3 (libmp3lame), 44100 Hz, stereo, fltp, delay 1105 (default)
    Metadata:
      creation_time   : 2022-08-04T16:15:52.000000Z
      handler_name    : ISO Media file produced by Google Inc.
      encoder         : Lavc58.54.100 libmp3lame
No more output streams to write to, finishing.
size=   92154kB time=01:38:17.79 bitrate= 128.0kbits/s speed=94.9x    
[AVIOContext @ 0x5616e64db900] Statistics: 0 seeks, 125 writeouts
video:0kB audio:92153kB subtitle:0kB other streams:0kB global headers:0kB muxing overhead: 0.000367%
Input file #0 (/home/hbattu/projects/huberman-gpt/huberman-audio/mp3/tmpy7187e6o.mp4):
  Input stream #0:0 (audio): 253996 packets read (94364409 bytes); 253996 frames decoded (260091904 samples); 
  Total: 253996 packets (94364409 bytes) demuxed
Output file #0 (../huberman-audio/mp3/7YGZZcXqKxE.mp3):
  Output stream #0:0 (audio): 225775 frames encoded (260091904 samples); 225776 packets muxed (94365152 bytes); 
  Total: 225776 packets (94365152 bytes) muxed
[AVIOContext @ 0x5616e6504900] Statistics: 2 seeks, 361 writeouts
[AVIOContext @ 0x5616e64e4880] Statistics: 95449613 bytes read, 0 seeks
